<svg width="150" height="33" viewBox="0 0 150 33" fill="none" xmlns="http://www.w3.org/2000/svg">
<g clip-path="url(#clip0_72_238)">
<path d="M19.109 5.4149V31.4824C16.9754 31.3754 14.9296 30.9376 13.0219 30.2195C5.41167 27.356 0 20.0338 0 11.4531C0 7.19532 1.33239 3.24715 3.60492 0L8.76409 5.13742C7.71526 7.00613 7.11791 9.16004 7.11791 11.4531C7.11791 15.9985 9.46685 19.9984 13.0219 22.3134V0.593202C13.2744 0.428423 13.5331 0.272596 13.7974 0.125313L19.109 5.41449V5.4149Z" fill="#E0D43E"/>
<path d="M20.9846 5.70215H24.9335C25.0982 5.78271 25.1803 6.04147 25.1803 6.47803V31.3071L24.9952 31.5658H20.9846C20.8199 31.4857 20.7378 31.2269 20.7378 30.7899V6.47803C20.7378 6.04147 20.8199 5.78271 20.9846 5.70215Z" fill="#E0D43E"/>
<path d="M30.3022 5.70215H38.2005L38.3856 5.96091V10.0128C38.3856 10.3233 38.3035 10.5247 38.1388 10.6162H32.5237C31.8654 10.8807 31.5365 11.3693 31.5365 12.0817V13.8922C31.5365 14.8463 32.1535 15.4501 33.3878 15.7028C33.7004 15.7028 34.996 16.134 37.2751 16.9962C38.3856 17.9271 38.9413 19.4792 38.9413 21.6515V25.2725C38.9413 28.112 38.0567 30.0657 36.2879 31.135L34.7455 31.5658H27.7731C27.5508 31.5658 27.3657 31.3933 27.2178 31.0487V26.738L27.588 26.3072L28.0199 26.3934H33.4499C34.1081 26.2095 34.437 25.7498 34.437 25.0142V22.859C34.437 22.0774 34.1694 21.5603 33.635 21.3073C29.9328 20.2152 28.0815 19.4394 28.0815 18.9796C27.3821 18.1407 27.0327 16.8188 27.0327 15.014V11.3066C27.0327 8.93872 27.876 7.18556 29.5627 6.04757L30.303 5.70256L30.3022 5.70215Z" fill="#E0D43E"/>
<path d="M41.0388 5.70215H44.9877C45.1524 5.78271 45.2345 6.04147 45.2345 6.47803V31.3071L45.0494 31.5658H41.0388C40.8741 31.4857 40.792 31.2269 40.792 30.7899V6.47803C40.792 6.04147 40.8741 5.78271 41.0388 5.70215Z" fill="#E0D43E"/>
<path d="M50.1094 5.70215H56.2182C56.9503 5.90883 57.6703 6.51261 58.3779 7.51267C58.9949 8.73122 59.3034 9.7085 59.3034 10.4437L59.3651 12.7713V23.8066C59.3651 26.8528 59.2004 28.376 58.8715 28.376C58.5671 29.3993 57.9089 30.3477 56.8968 31.2212L56.2182 31.5662H50.1094C48.9495 31.0259 48.0445 29.9628 47.3944 28.3765C47.1885 27.8134 47.0859 26.9512 47.0859 25.79V11.3925C47.0859 8.51884 48.0935 6.62206 50.1094 5.70256V5.70215ZM51.5901 11.8234V24.7554C51.5901 25.8474 51.8369 26.3934 52.3305 26.3934C53.8937 26.5086 54.6754 26.2209 54.6754 25.5313L54.7371 24.7554V12.0821C54.7779 11.22 54.5311 10.7313 53.9967 10.6166H52.1454C51.6927 10.8469 51.5076 11.2489 51.5901 11.8238V11.8234Z" fill="#E0D43E"/>
<path d="M61.4015 5.70215H67.3251C67.5551 5.95522 68.1108 8.0241 68.9913 11.9096L71.0277 20.3585H71.2128L71.2005 6.37469C71.2745 5.92633 71.3611 5.70215 71.4595 5.70215H75.6553L75.8404 5.96091V31.3075L75.6553 31.5662H69.9167C69.6532 31.5662 69.4681 31.1638 69.3615 30.3591L66.0912 16.8237H65.9061V30.8762C65.9061 31.3359 65.7827 31.5658 65.5359 31.5658H61.4019L61.2168 31.3071V5.96091L61.4019 5.70215H61.4015Z" fill="#E0D43E"/>
<path d="M103.043 5.70215H111.435C112.505 6.05856 113.369 6.80555 114.027 7.94354C114.521 8.71373 114.767 10.1508 114.767 12.2542V14.2373C114.767 16.2028 114.521 17.4962 114.027 18.1167L113.78 18.5475V18.72C114.479 19.6399 114.829 20.9041 114.829 22.5132V31.0483C114.722 31.3933 114.558 31.5654 114.335 31.5654H110.88C110.551 31.5654 110.387 31.3067 110.387 30.7895V22.4269C110.263 21.4501 109.913 20.9614 109.338 20.9614H107.61L107.363 21.3064V30.6174C107.363 31.2497 107.198 31.5658 106.869 31.5658H103.389C103.151 31.5658 102.986 31.3071 102.896 30.7899L102.858 5.96091L103.043 5.70215ZM107.363 10.9612V16.0478L107.548 16.3065H109.461C109.946 16.3065 110.255 15.7894 110.386 14.7548V11.9959C110.238 11.0764 109.826 10.6166 109.152 10.6166H107.61L107.363 10.9616L107.363 10.9612Z" fill="#ABC343"/>
<path d="M116.926 5.70215H120.875C121.04 5.78271 121.122 6.04147 121.122 6.47803V31.3071L120.937 31.5658H116.926C116.762 31.4857 116.68 31.2269 116.68 30.7899V6.47803C116.68 6.04147 116.762 5.78271 116.926 5.70215Z" fill="#ABC343"/>
<path d="M123.159 5.70215H126.984C127.165 5.70215 127.556 8.17382 128.157 13.1164L129.761 24.2379L129.823 24.3241H129.946C130.111 24.3241 130.358 22.9449 130.686 20.186C131.715 12.4267 132.394 7.62782 132.723 5.7884L132.97 5.70215H136.61L136.733 5.87466V5.96091L133.463 28.1177C133.126 30.4169 132.879 31.5662 132.723 31.5662H127.108C126.918 31.5662 126.569 29.641 126.059 25.79C124.66 17.1805 123.632 10.5995 122.974 6.04757V5.96132L123.159 5.70256V5.70215Z" fill="#ABC343"/>
<path d="M138.831 5.70215H149.506L149.691 5.96091V9.84032C149.691 10.2427 149.547 10.4437 149.259 10.4437H143.15C142.904 10.4437 142.78 10.6162 142.78 10.9608V15.444L142.965 15.7028H148.148C148.519 15.7028 148.704 15.9042 148.704 16.3061V20.0134C148.704 20.3585 148.58 20.5306 148.334 20.5306H143.15C142.904 20.5306 142.78 20.7031 142.78 21.0477V25.3584C142.78 26.3356 143.315 26.8239 144.384 26.8239H149.567C149.856 26.8239 149.999 27.0253 149.999 27.4272V31.3067L149.814 31.5654H141.854C140.678 31.1289 139.793 30.2667 139.201 28.979C138.789 27.8182 138.584 26.6973 138.584 25.6167V6.73679C138.584 6.04717 138.666 5.70215 138.831 5.70215H138.831Z" fill="#ABC343"/>
<path d="M100.571 20.0464C100.571 24.3046 99.2388 28.2524 96.9659 31.4995L91.8067 26.3621C92.8556 24.4934 93.4529 22.3395 93.4529 20.0464C93.4529 15.501 91.104 11.5015 87.5489 9.18649V30.9067C87.2964 31.0711 87.0377 31.2273 86.7734 31.3746C85.0598 32.3279 83.1072 32.9072 81.0283 33.0004V0C83.3184 0.0663182 85.5121 0.513457 87.5489 1.27998C95.1591 4.14346 100.571 11.4657 100.571 20.046L100.571 20.0464Z" fill="#ABC343"/>
</g>
<defs>
<clipPath id="clip0_72_238">
<rect width="150" height="33" fill="white"/>
</clipPath>
</defs>
</svg>
