<svg width="239" height="306" viewBox="0 0 239 306" fill="none" xmlns="http://www.w3.org/2000/svg">
<g clip-path="url(#clip0_69_145)">
<path d="M225.1 99.36V187.5L215.1 190.24V105.17C163.48 69.86 119.46 64.85 119.46 64.85C119.46 64.85 75.4398 69.86 23.8198 105.17V190.24L13.8198 187.5V99.36C63.1898 60.95 119.46 53.74 119.46 53.74C119.46 53.74 175.73 60.95 225.1 99.36Z" fill="#F8F9F9"/>
<path d="M0 189.71L109.05 222.3V232.81L0 193.91V189.71Z" fill="#F8F9F9"/>
<path d="M238.91 189.71V193.91L129.86 232.82L119.46 236.53V194.14C121.06 195.29 122.99 196.13 125.13 196.54C125.87 196.68 126.61 196.75 127.35 196.75C128.21 196.75 129.05 196.66 129.87 196.47V222.31L238.92 189.71H238.91Z" fill="#F8F9F9"/>
<path d="M92.24 237.65V277.83C81.72 272.76 73.08 265.19 73.08 265.19C73.08 265.19 67 248.07 52.1 236.52C37.19 224.97 0 203.4 0 203.4V199.77L92.24 237.66V237.65Z" fill="#A0C334"/>
<path d="M109.05 244.55V283.18C104.9 282.42 99.9502 281.17 95.1402 279.15C94.1602 278.74 93.1902 278.3 92.2402 277.83V237.65L109.05 244.55Z" fill="#B1CD5B"/>
<path d="M119.45 248.83V284.4C119.45 284.4 115.07 284.29 109.05 283.18V244.55L119.45 248.83Z" fill="#FEFFF8"/>
<path d="M238.91 216.52V225.42C238.91 225.42 225.92 229.7 213.25 242.38C200.57 255.05 183.32 280.03 162.72 291.53C142.11 303.04 119.46 305.55 119.46 305.55C119.46 305.55 96.8 303.03 76.19 291.53C55.58 280.03 38.35 255.05 25.67 242.38C12.98 229.7 0 225.42 0 225.42V216.52C0 216.52 15.9 222.48 29.7 234.63C43.51 246.78 51.76 261.65 74.57 277.82C97.39 293.99 119.45 294.55 119.45 294.55C119.45 294.55 141.51 294 164.32 277.82C187.12 261.66 195.39 246.79 209.19 234.63C223 222.48 238.91 216.52 238.91 216.52Z" fill="#F8F9F9"/>
<path d="M146.67 237.65V277.83C157.19 272.76 165.83 265.19 165.83 265.19C165.83 265.19 171.91 248.07 186.81 236.52C201.72 224.97 238.91 203.39 238.91 203.39V199.76L146.67 237.65Z" fill="#A0C334"/>
<path d="M129.86 244.55V283.18C134.01 282.42 138.96 281.17 143.77 279.15C144.75 278.74 145.72 278.3 146.67 277.83V237.65L129.86 244.55Z" fill="#B1CD5B"/>
<path d="M119.45 248.83V284.4C119.45 284.4 123.83 284.29 129.85 283.18V244.55L119.45 248.83Z" fill="#FEFFF8"/>
<path d="M83.4499 129.91C81.5899 132.14 79.9899 134.75 78.7799 137.59C78.4599 138.33 78.1799 139.07 77.9299 139.82C77.4499 141.2 77.0799 142.59 76.8499 143.97C73.0399 142.79 69.1199 141.57 65.5699 139.79L65.0099 139.5L64.7299 138.94C64.1199 137.71 63.8799 136.26 64.0399 134.78C64.1299 133.85 64.3799 132.91 64.7799 131.98C65.8099 129.56 67.6999 127.68 69.6799 127.07C70.4199 126.83 71.1099 126.72 71.7799 126.72C72.3199 126.72 72.8599 126.8 73.3699 126.94C76.7199 127.92 80.1199 128.93 83.4599 129.93L83.4499 129.91Z" fill="#5D5D5D"/>
<path d="M83.45 129.91C81.59 132.14 79.99 134.75 78.78 137.59C78.46 138.33 78.18 139.07 77.93 139.82C77.2 139.58 76.46 139.36 75.74 139.14C71.87 137.95 67.89 136.72 64.29 134.91L64.02 134.77C64.11 133.84 64.36 132.9 64.76 131.97C65.79 129.55 67.68 127.67 69.66 127.06C70.4 126.82 71.09 126.71 71.76 126.71C72.3 126.71 72.84 126.79 73.35 126.93C76.7 127.91 80.1 128.92 83.44 129.92L83.45 129.91Z" fill="white"/>
<path d="M180.98 150.79C168.86 146.98 156.69 143.64 144.56 140.01C130.88 135.94 117.21 131.86 103.5 127.89C100.9 127.14 98.25 127.41 95.59 128.23C88.31 130.09 79.91 143.58 82.72 152.97C83.3 154.87 84.32 156.61 85.92 158.06C104.16 164.2 122.41 170.36 140.66 176.46C142.02 176.92 142.79 177.49 143.32 178.98C145.04 183.53 147.93 186.16 151.28 187.28C157.04 189.23 164.14 186.67 168.76 181.67C168.75 181.66 168.76 181.66 168.76 181.66C170.58 179.69 172.02 177.33 172.84 174.74C173.13 173.8 173.35 172.84 173.47 171.84C173.89 170.19 172.76 170.52 172.12 170.21C171.17 169.74 170.9 170.22 170.66 171.17C169.07 178.7 162.08 186.38 153.7 184.1C149.08 182.8 146.64 179.49 145.41 175.07C145.35 174.85 145.33 174.58 145.28 174.33C145.21 173.87 145.04 173.47 144.41 173.47C142.53 173.45 143.39 172.47 143.76 171.73C149.46 160.9 153.5 151.1 162.5 149.57C166.2 148.94 170.74 149.71 176.57 152.38C177.65 152.62 177.89 153.23 177.73 154.08C177.61 154.81 177.2 155.71 176.8 156.71C176.02 158.65 175.3 160.92 176.76 162.83C176.87 162.97 176.97 163.1 177.1 163.23C177.31 161.71 179.7 158.07 181.04 155.11C182.03 152.92 182.44 151.1 180.97 150.78L180.98 150.79ZM89.3 138.14C90.22 137.21 91.03 137 92.29 137.4C111.24 143.37 130.25 149.13 149.1 155.41C148.62 156.48 148.19 157.43 147.76 158.37C147.57 158.56 147.38 158.79 147.18 159.06C144.64 162.62 142 172.1 138.14 170.93C122.29 165.53 106.43 160.23 90.58 154.86C87.79 154.55 86.14 153.24 85.33 151.45C83.53 147.48 85.89 141.14 89.3 138.13V138.14Z" fill="#F8F9F9"/>
<path d="M166.37 167.6C166.23 173.98 157.79 174.55 157.76 168.04C158.15 162.33 166.37 161.06 166.37 167.6Z" fill="#F8F9F9"/>
<path d="M149.1 155.41C148.62 156.48 148.19 157.43 147.76 158.37C147.57 158.56 147.38 158.79 147.18 159.06C129.15 153.09 110.95 147.58 92.8302 141.86C91.5702 141.46 90.7702 141.67 89.8402 142.6C87.5502 144.63 85.7302 148.15 85.3302 151.45C83.5302 147.48 85.8902 141.14 89.3002 138.13C90.2202 137.2 91.0302 136.99 92.2902 137.39C111.24 143.36 130.25 149.12 149.1 155.4V155.41Z" fill="#5D5D5D"/>
<path d="M113.61 178.49C115.87 178.49 118.13 178.56 120.39 178.46C121.71 178.4 122.28 178.69 122.11 180.15C121.91 181.83 122.07 183.52 122.72 185.13C124.14 188.61 128.76 189.39 130.88 186.32C131.83 184.95 132.5 185.4 133.44 185.88C134.75 186.55 133.98 187.36 133.54 188.11C131.8 191.1 129.03 192.49 125.99 191.91C122.28 191.2 119.44 188.65 119.17 185.24C119.01 183.25 118.17 183.03 116.53 183.08C113.21 183.18 109.89 183.08 106.57 183.13C105.18 183.15 104.64 182.74 104.74 181.21C104.94 178.23 104.83 178.22 107.89 178.32C108.88 178.35 109.86 178.43 110.85 178.45C111.77 178.47 112.69 178.45 113.6 178.45C113.6 178.45 113.6 178.46 113.6 178.47L113.61 178.49Z" fill="#F8F9F9"/>
<path d="M74.3801 2.03998C74.3001 2.16998 74.2201 2.28998 74.1301 2.41998C74.0501 2.28998 73.9401 2.16998 73.8901 2.02998C73.8001 1.75998 73.9101 1.58998 74.1901 1.64998C74.2801 1.66998 74.3101 1.89998 74.3701 2.03998H74.3801Z" fill="#FE0808"/>
<path d="M43.1099 0.120028C43.3099 0.0800284 43.6499 -0.0499716 43.6999 0.0200284C43.8699 0.260028 43.7299 0.460028 43.4499 0.560028C43.3399 0.420028 43.2199 0.270028 43.1099 0.130028V0.120028Z" fill="#FE0808"/>
</g>
<defs>
<clipPath id="clip0_69_145">
<rect width="238.91" height="305.55" fill="white"/>
</clipPath>
</defs>
</svg>
