<svg width="55" height="27" viewBox="0 0 55 27" fill="none" xmlns="http://www.w3.org/2000/svg">
<path d="M35.7826 20.2029H6C3.23858 20.2029 1 17.9643 1 15.2029V6C1 3.23858 3.23858 1 6 1H46.2792C48.7155 1 50.0375 3.85029 48.4638 5.71014V5.71014L35.7826 20.2029ZM35.7826 20.2029H4.98551C4.3852 20.2029 3.89855 20.6895 3.89855 21.2899V21.2899V21.2899C3.89855 23.8912 6.00735 26 8.60869 26H38.7536C41.515 26 43.7536 23.7614 43.7536 21V13.3188V13.3188C43.7536 12.5241 42.767 12.1556 42.2461 12.7559L35.7826 20.2029Z" stroke="white" stroke-width="2"/>
<rect x="46.29" y="10.4204" width="7.24638" height="10.8696" rx="3" stroke="white" stroke-width="2"/>
</svg>
