<svg width="53" height="59" viewBox="0 0 53 59" fill="none" xmlns="http://www.w3.org/2000/svg">
<g clip-path="url(#clip0_124_359)">
<path d="M49.936 12.5501V32.406L47.7176 33.0232V13.8589C36.2661 5.90441 26.5007 4.77577 26.5007 4.77577C26.5007 4.77577 16.7353 5.90441 5.28384 13.8589V33.0232L3.06543 32.406V12.5501C14.0177 3.8972 26.5007 2.27295 26.5007 2.27295C26.5007 2.27295 38.9837 3.8972 49.936 12.5501Z" fill="#F8F9F9"/>
<path d="M0 32.9041L24.1917 40.2458V42.6135L0 33.8502V32.9041Z" fill="#F8F9F9"/>
<path d="M52.9999 32.9041V33.8502L28.8081 42.6157L26.501 43.4515V33.902C26.8559 34.1611 27.2841 34.3503 27.7588 34.4427C27.923 34.4742 28.0871 34.49 28.2513 34.49C28.4421 34.49 28.6284 34.4697 28.8103 34.4269V40.2481L53.0021 32.9041H52.9999Z" fill="#F8F9F9"/>
<path d="M20.4626 43.7037V52.7553C18.1288 51.6131 16.2121 49.9078 16.2121 49.9078C16.2121 49.9078 14.8633 46.051 11.5579 43.4491C8.25026 40.8471 0 35.9879 0 35.9879V35.1702L20.4626 43.7059V43.7037Z" fill="#A0C334"/>
<path d="M24.1911 45.258V53.9605C23.2704 53.7893 22.1723 53.5077 21.1053 53.0526C20.8878 52.9602 20.6727 52.8611 20.4619 52.7552V43.7036L24.1911 45.258Z" fill="#B1CD5B"/>
<path d="M26.4995 46.2222V54.2353C26.4995 54.2353 25.5279 54.2106 24.1924 53.9605V45.2581L26.4995 46.2222Z" fill="#FEFFF8"/>
<path d="M53 38.9436V40.9486C53 40.9486 50.1183 41.9128 47.3076 44.7693C44.4946 47.6235 40.6679 53.2509 36.0979 55.8416C31.5258 58.4346 26.5011 59 26.5011 59C26.5011 59 21.4742 58.4323 16.9021 55.8416C12.3299 53.2509 8.5076 47.6235 5.69465 44.7693C2.87949 41.9128 0 40.9486 0 40.9486V38.9436C0 38.9436 3.52727 40.2863 6.58867 43.0234C9.6523 45.7605 11.4825 49.1103 16.5427 52.7531C21.6051 56.3958 26.4989 56.5219 26.4989 56.5219C26.4989 56.5219 31.3927 56.3981 36.4529 52.7531C41.5109 49.1126 43.3455 45.7627 46.4069 43.0234C49.4705 40.2863 53 38.9436 53 38.9436Z" fill="#F8F9F9"/>
<path d="M32.5381 43.7037V52.7553C34.8719 51.6132 36.7886 49.9078 36.7886 49.9078C36.7886 49.9078 38.1373 46.0511 41.4428 43.4491C44.7504 40.8472 53.0007 35.9857 53.0007 35.9857V35.168L32.5381 43.7037Z" fill="#A0C334"/>
<path d="M28.8076 45.258V53.9605C29.7283 53.7893 30.8264 53.5077 31.8934 53.0526C32.1108 52.9602 32.326 52.8611 32.5368 52.7552V43.7036L28.8076 45.258Z" fill="#B1CD5B"/>
<path d="M26.499 46.2222V54.2353C26.499 54.2353 27.4707 54.2106 28.8062 53.9605V45.2581L26.499 46.2222Z" fill="#FEFFF8"/>
<path d="M18.5129 19.4325C18.1003 19.9349 17.7454 20.5228 17.4769 21.1626C17.4059 21.3293 17.3438 21.496 17.2884 21.665C17.1819 21.9759 17.0998 22.289 17.0488 22.5999C16.2036 22.3341 15.3339 22.0592 14.5464 21.6582L14.4222 21.5929L14.3601 21.4668C14.2247 21.1897 14.1715 20.863 14.207 20.5296C14.227 20.3201 14.2824 20.1083 14.3712 19.8988C14.5996 19.3537 15.0189 18.9301 15.4582 18.7927C15.6223 18.7386 15.7754 18.7139 15.924 18.7139C16.0438 18.7139 16.1636 18.7319 16.2768 18.7634C17.0199 18.9842 17.7742 19.2117 18.5151 19.437L18.5129 19.4325Z" fill="#5D5D5D"/>
<path d="M18.5135 19.4323C18.1009 19.9347 17.7459 20.5227 17.4775 21.1624C17.4065 21.3291 17.3444 21.4958 17.2889 21.6648C17.127 21.6107 16.9628 21.5612 16.8031 21.5116C15.9446 21.2435 15.0617 20.9664 14.263 20.5587L14.2031 20.5272C14.2231 20.3177 14.2786 20.1059 14.3673 19.8964C14.5958 19.3512 15.0151 18.9277 15.4543 18.7903C15.6185 18.7362 15.7715 18.7114 15.9202 18.7114C16.04 18.7114 16.1598 18.7294 16.2729 18.761C17.0161 18.9818 17.7703 19.2093 18.5113 19.4346L18.5135 19.4323Z" fill="white"/>
<path d="M40.1489 24.1363C37.4601 23.278 34.7603 22.5255 32.0694 21.7078C29.0346 20.7909 26.0021 19.8718 22.9606 18.9774C22.3838 18.8085 21.796 18.8693 21.2059 19.054C19.5909 19.473 17.7274 22.512 18.3508 24.6274C18.4794 25.0554 18.7057 25.4474 19.0607 25.774C23.107 27.1572 27.1556 28.5449 31.2042 29.9191C31.5059 30.0227 31.6768 30.1512 31.7943 30.4868C32.1759 31.5118 32.817 32.1043 33.5602 32.3566C34.838 32.7959 36.413 32.2192 37.438 31.0928C37.4357 31.0906 37.438 31.0906 37.438 31.0906C37.8417 30.6468 38.1612 30.1151 38.3431 29.5316C38.4074 29.3199 38.4562 29.1036 38.4828 28.8783C38.576 28.5066 38.3253 28.581 38.1833 28.5111C37.9726 28.4053 37.9127 28.5134 37.8595 28.7274C37.5067 30.4237 35.9561 32.1539 34.097 31.6402C33.0721 31.3474 32.5308 30.6017 32.258 29.606C32.2447 29.5564 32.2402 29.4956 32.2291 29.4393C32.2136 29.3357 32.1759 29.2455 32.0361 29.2455C31.6191 29.241 31.8099 29.0203 31.8919 28.8536C33.1564 26.4138 34.0527 24.2061 36.0492 23.8614C36.87 23.7195 37.8772 23.893 39.1705 24.4945C39.4101 24.5485 39.4634 24.6859 39.4279 24.8774C39.4012 25.0419 39.3103 25.2446 39.2216 25.4699C39.0485 25.9069 38.8888 26.4183 39.2127 26.8486C39.2371 26.8801 39.2593 26.9094 39.2881 26.9387C39.3347 26.5963 39.8649 25.7763 40.1622 25.1095C40.3818 24.6161 40.4727 24.2061 40.1466 24.134L40.1489 24.1363ZM19.8105 21.2865C20.0146 21.077 20.1943 21.0297 20.4738 21.1198C24.6777 22.4647 28.8949 23.7623 33.0766 25.177C32.9701 25.4181 32.8747 25.6321 32.7793 25.8439C32.7371 25.8867 32.695 25.9385 32.6506 25.9993C32.0872 26.8013 31.5015 28.9369 30.6452 28.6733C27.129 27.4568 23.6106 26.2629 20.0944 25.0531C19.4755 24.9833 19.1095 24.6882 18.9298 24.2849C18.5305 23.3906 19.054 21.9623 19.8105 21.2843V21.2865Z" fill="#F8F9F9"/>
<path d="M36.9081 27.9232C36.877 29.3604 35.0047 29.4888 34.998 28.0223C35.0846 26.736 36.9081 26.4499 36.9081 27.9232Z" fill="#F8F9F9"/>
<path d="M33.0764 25.1769C32.9699 25.418 32.8745 25.632 32.7791 25.8438C32.737 25.8866 32.6948 25.9384 32.6504 25.9992C28.6506 24.6543 24.6131 23.413 20.5934 22.1244C20.3139 22.0343 20.1364 22.0816 19.9301 22.2911C19.4221 22.7485 19.0183 23.5414 18.9296 24.2848C18.5303 23.3905 19.0538 21.9622 19.8103 21.2842C20.0144 21.0747 20.1941 21.0273 20.4736 21.1175C24.6775 22.4624 28.8947 23.7599 33.0764 25.1747V25.1769Z" fill="#5D5D5D"/>
<path d="M25.2037 30.3764C25.7051 30.3764 26.2064 30.3921 26.7078 30.3696C27.0006 30.3561 27.1271 30.4214 27.0894 30.7503C27.045 31.1288 27.0805 31.5095 27.2247 31.8722C27.5397 32.6562 28.5646 32.8319 29.0349 32.1403C29.2456 31.8317 29.3943 31.933 29.6028 32.0412C29.8934 32.1921 29.7226 32.3746 29.625 32.5435C29.239 33.2171 28.6245 33.5303 27.9501 33.3996C27.1271 33.2396 26.497 32.6652 26.4371 31.897C26.4016 31.4487 26.2153 31.3991 25.8515 31.4104C25.115 31.4329 24.3785 31.4104 23.6419 31.4217C23.3336 31.4262 23.2138 31.3338 23.236 30.9891C23.2803 30.3178 23.2559 30.3156 23.9348 30.3381C24.1544 30.3448 24.3718 30.3629 24.5914 30.3674C24.7955 30.3719 24.9996 30.3674 25.2015 30.3674C25.2015 30.3674 25.2015 30.3696 25.2015 30.3719L25.2037 30.3764Z" fill="#F8F9F9"/>
</g>
<defs>
<clipPath id="clip0_124_359">
<rect width="53" height="59" fill="white"/>
</clipPath>
</defs>
</svg>
