<svg width="47" height="29" viewBox="0 0 47 29" fill="none" xmlns="http://www.w3.org/2000/svg">
<path d="M11.5772 2.88961C11.6358 1.82955 12.5125 1 13.5742 1L14.1579 1C15.1826 1 16.0416 1.77447 16.1473 2.7937L16.2374 3.66324C16.309 4.35371 16.7335 4.95766 17.359 5.25886L18.4398 5.77937C19.1286 6.11113 19.9464 6.02109 20.5466 5.5474L20.8253 5.32745C21.6892 4.64561 22.9417 4.78992 23.628 5.65036L23.9518 6.0564C24.582 6.84663 24.5236 7.98289 23.8156 8.7043L23.1268 9.40622C22.6497 9.8924 22.4528 10.588 22.6044 11.2521L22.8695 12.4138C23.0433 13.1753 23.6446 13.766 24.4091 13.9262L24.6503 13.9768C25.745 14.2062 26.4388 15.2888 26.1899 16.3793L26.1102 16.7283C25.8746 17.7606 24.8752 18.4304 23.8308 18.2559L23.108 18.1351C22.3919 18.0155 21.6673 18.2932 21.2147 18.8608L20.482 19.7795C20.0165 20.3632 19.9149 21.1576 20.2184 21.8397L20.4545 22.3701C20.894 23.3579 20.4691 24.5161 19.495 24.9852L19.0958 25.1775C18.138 25.6387 16.9868 25.2701 16.4751 24.3384L16.1743 23.791C15.823 23.1514 15.1512 22.7539 14.4214 22.7539H13.2216C12.4918 22.7539 11.82 23.1513 11.4687 23.7909L11.1679 24.3385C10.6561 25.2702 9.50491 25.6387 8.54719 25.1775L8.07 24.9477C7.12761 24.4939 6.69408 23.3905 7.07542 22.4166L7.31538 21.8037C7.57567 21.1389 7.46186 20.3858 7.01675 19.8276L6.25285 18.8696C5.79651 18.2974 5.06401 18.0201 4.3431 18.1467L3.82527 18.2377C2.77607 18.422 1.76653 17.7516 1.5294 16.7131L1.43129 16.2833C1.19091 15.2306 1.82968 14.1771 2.8743 13.9034L3.31511 13.788C4.03613 13.5991 4.5923 13.0249 4.75816 12.2983L5.02858 11.1135C5.18561 10.4255 4.96844 9.70563 4.45711 9.21927L3.91518 8.70379C3.16374 7.98905 3.0833 6.81848 3.7299 6.00766L4.05178 5.60404C4.72331 4.76197 5.94107 4.60291 6.80635 5.24425L7.28949 5.60234C7.88624 6.04463 8.67895 6.11978 9.34817 5.7975L10.409 5.28662C11.0654 4.97052 11.498 4.3225 11.5382 3.59508L11.5772 2.88961Z" stroke="white" stroke-width="2"/>
<circle cx="13.8216" cy="13.6629" r="6.21028" stroke="white" stroke-width="2"/>
<path d="M34.008 10.6592C34.0595 9.72838 34.8292 9 35.7614 9V9C36.6612 9 37.4154 9.68003 37.5082 10.575L37.5281 10.7673C37.5987 11.4476 38.0169 12.0427 38.6331 12.3394L39.1307 12.579C39.7103 12.8582 40.3983 12.7824 40.9033 12.3839V12.3839C41.6302 11.8102 42.6841 11.9316 43.2615 12.6556L43.2883 12.6892C43.8322 13.3712 43.7818 14.3518 43.1708 14.9744L42.9634 15.1857C42.4863 15.6719 42.2894 16.3675 42.441 17.0316L42.5672 17.5845C42.7088 18.2048 43.1986 18.686 43.8213 18.8165V18.8165C44.7131 19.0034 45.2752 19.8985 45.0725 20.7868V20.7868C44.8775 21.6411 44.0476 22.2077 43.1834 22.0633L42.9746 22.0284C42.3017 21.916 41.6207 22.177 41.1953 22.7104L40.8785 23.1076C40.4606 23.6317 40.3694 24.3448 40.6419 24.9572L40.6829 25.0493C41.0547 25.8848 40.6952 26.8645 39.8713 27.2613V27.2613C39.0612 27.6514 38.0874 27.3397 37.6545 26.5516L37.5941 26.4415C37.2736 25.8581 36.6608 25.4956 35.9952 25.4956H35.4494C34.7838 25.4956 34.171 25.8581 33.8505 26.4415L33.8079 26.5192C33.365 27.3254 32.3688 27.6444 31.54 27.2452V27.2452C30.7244 26.8525 30.3493 25.8977 30.6793 25.0549L30.7191 24.9533C30.9596 24.3389 30.8544 23.6429 30.4431 23.127L30.0787 22.67C29.6738 22.1622 29.0238 21.9162 28.3841 22.0286L28.3054 22.0424C27.4185 22.1982 26.565 21.6315 26.3646 20.7535V20.7535C26.1614 19.8636 26.7014 18.973 27.5844 18.7417L27.6268 18.7306C28.2526 18.5666 28.7354 18.0683 28.8793 17.4376L29.0064 16.8807C29.1555 16.2277 28.9494 15.5444 28.464 15.0828L28.3487 14.973C27.7007 14.3567 27.6313 13.3473 28.1889 12.6482V12.6482C28.768 11.922 29.818 11.7849 30.5642 12.3379L30.6282 12.3854C31.1674 12.785 31.8837 12.8529 32.4884 12.5617L32.9492 12.3398C33.5614 12.045 33.9648 11.4406 34.0023 10.7622L34.008 10.6592Z" stroke="white" stroke-width="2"/>
<circle cx="35.7228" cy="18.602" r="4.70914" stroke="white" stroke-width="2"/>
</svg>
